<?xml version="1.0" encoding="utf-8"?>
<!-- Svg Vector Icons : http://www.onlinewebfonts.com/icon -->
<!DOCTYPE svg PUBLIC "-//W3C//DTD SVG 1.1//EN" "http://www.w3.org/Graphics/SVG/1.1/DTD/svg11.dtd">
<svg version="1.1" xmlns="http://www.w3.org/2000/svg" xmlns:xlink="http://www.w3.org/1999/xlink" x="0px" y="0px" viewBox="0 0 1000 1000" enable-background="new 0 0 1000 1000" xml:space="preserve">
<metadata> Svg Vector Icons : http://www.onlinewebfonts.com/icon </metadata>
<g><g transform="translate(0.000000,511.000000) scale(0.100000,-0.100000)"><path d="M4733.3,3331.2c-373.1-359.4-592.9-668.4-824.1-1151.5C3231.6,749,3394.1-1048,4316.7-2300.2c141.9-192.3,503.6-570,618.1-645.6c61.8-41.2,66.4-41.2,128.2,0c112.2,73.3,471.6,451,620.4,650.1c1112.5,1504,1089.6,3761.1-55,5233.1c-141.9,178.5-590.6,627.2-631.8,627.2C4985.1,3564.7,4866.1,3459.4,4733.3,3331.2z"/><path d="M1748.2,2129.4c-190-508.2-244.9-1215.5-141.9-1817.6c18.3-112.2,4.6-105.3,370.9-171.7c244.9-43.5,666.2-174,901.9-281.6c87-38.9,157.9-71,160.2-71c0,0,0,185.4-4.6,414.3c-9.2,476.1,32,867.6,130.5,1263.6l61.8,247.2l-125.9,75.5c-336.5,203.7-764.6,373.1-1103.4,437.2c-103,18.3-190,34.3-192.3,34.3C1800.9,2259.8,1775.7,2200.3,1748.2,2129.4z"/><path d="M7951.9,2214.1c-343.4-73.3-835.6-274.7-1096.5-448.7l-84.7-54.9l61.8-247.2c98.4-393.7,139.7-785.2,130.5-1261.3c-4.6-228.9-4.6-414.3-4.6-414.3c2.3,0,73.3,32.1,160.2,71c233.5,105.3,654.7,238.1,902,283.9c389.2,71,350.2,45.8,382.3,254.1c38.9,244.9,43.5,849.3,9.2,1073.6c-57.2,366.3-185.4,792.1-238.1,787.5C8157.9,2257.5,8059.5,2236.9,7951.9,2214.1z"/><path d="M956.2-260.5c-116.7-9.2-265.5-27.5-331.9-41.2C436.5-340.7,100-446,100-466.6c0-57.2,77.8-370.8,128.2-522c80.1-233.5,272.4-602.1,437.2-833.3c178.5-251.8,563.1-634.1,831-821.8c425.8-302.2,963.7-538,1460.5-638.7c293-59.5,782.9-80.1,1046.2-45.8c185.4,25.2,489.9,89.3,512.8,107.6c4.6,4.6-43.5,54.9-109.9,114.5c-167.1,148.8-444.1,487.6-613.5,746.3c-263.3,398.3-446.4,826.4-645.5,1506.3c-13.7,41.2-71,87-222.1,164.8C2306.8-359,1606.3-207.9,956.2-260.5z"/><path d="M8615.8-251.4c-503.6-22.9-1064.5-183.1-1542.9-437.2l-203.7-107.6l-87-288.4c-158-526.5-341.1-924.9-611.2-1327.7c-169.4-249.5-526.5-668.4-629.5-737.1c-34.3-22.9-61.8-48.1-61.8-57.2c0-25.2,281.6-89.3,526.5-121.3c251.8-34.3,746.3-11.4,1034.7,45.8c702.8,141.9,1382.7,503.6,1895.4,1009.5c505.9,496.8,847,1119.4,947.7,1730.6l16,91.6l-201.4,64.1C9371.2-285.7,8972.9-235.4,8615.8-251.4z"/></g></g>
</svg>